<?xml version="1.0" standalone="no"?>
<!DOCTYPE svg PUBLIC "-//W3C//DTD SVG 20010904//EN"
 "http://www.w3.org/TR/2001/REC-SVG-20010904/DTD/svg10.dtd">
<svg version="1.0" xmlns="http://www.w3.org/2000/svg"
 width="225.000000pt" height="225.000000pt" viewBox="0 0 225.000000 225.000000"
 preserveAspectRatio="xMidYMid meet">

<g transform="translate(0.000000,225.000000) scale(0.100000,-0.100000)"
fill="#000000" stroke="none">
<path d="M722 1680 c-80 -19 -146 -97 -157 -184 -4 -28 -5 -215 -3 -416 3
-399 2 -392 64 -454 63 -63 50 -61 499 -61 449 0 436 -2 499 61 63 63 61 50
61 499 0 449 2 436 -61 499 -63 62 -52 61 -479 63 -214 1 -405 -2 -423 -7z
m803 -155 l25 -24 0 -376 0 -376 -25 -24 -24 -25 -376 0 -376 0 -24 25 -25 24
0 376 0 376 25 24 24 25 376 0 376 0 24 -25z"/>
<path d="M816 1368 c-35 -49 0 -118 59 -118 38 0 75 37 75 74 0 44 -26 66 -78
66 -31 0 -45 -5 -56 -22z"/>
<path d="M853 1220 c-37 -15 -43 -42 -43 -184 0 -133 0 -135 26 -155 35 -27
59 -26 89 4 24 23 25 29 25 158 0 114 -3 138 -17 155 -22 25 -51 33 -80 22z"/>
<path d="M1271 1218 c-24 -4 -54 -14 -66 -22 -21 -14 -24 -13 -40 4 -22 24
-68 26 -89 4 -13 -13 -16 -42 -16 -160 0 -131 2 -146 20 -164 25 -25 51 -25
83 0 25 20 26 26 29 128 l3 106 33 10 c26 7 36 5 52 -9 17 -16 20 -31 20 -112
0 -86 2 -96 25 -118 30 -31 65 -32 93 -2 20 21 22 34 22 136 0 119 -14 172
-48 186 -39 16 -80 21 -121 13z"/>
</g>
</svg>
